# xmcd CD database file
#
# Track frame offsets:
#	150
#	18480
#	36527
#	52522
#	69942
#	94795
#	109597
#	123882
#	144485
#	160937
#	181545
#	199880
#	217837
#	236822
#	258125
#	273940
#
# Disc length: 3903 seconds
#
# Revision: 0
# Processed by: cddbd v1.5PL3 Copyright (c) Steve Scherf et al.
# Submitted via: CDex 1.51
#
DISCID=cf0f3d10
DTITLE=伊藤　麻衣子 - Golden J-Pop The Best 伊藤麻衣子
DYEAR=1999
DGENRE=Pop
TTITLE0=夢の入口
TTITLE1=秋のほほづえ
TTITLE2=危ない感傷
TTITLE3=さよならのカレンダー
TTITLE4=キミたちにグッドラック
TTITLE5=優しい絆
TTITLE6=感激!ラブモーション
TTITLE7=スロー・ダンサー
TTITLE8=見えない翼
TTITLE9=不良少女とよばれて
TTITLE10=わたしの胸に
TTITLE11=もっと真実
TTITLE12=真珠貝の涙
TTITLE13=愛の陽炎（かげろう）
TTITLE14=September Summer〜リア・ウィンドウに残った夏〜
TTITLE15=最後の春休み
EXTD=YEAR: 1999
EXTT0=
EXTT1=
EXTT2=
EXTT3=
EXTT4=
EXTT5=
EXTT6=
EXTT7=
EXTT8=
EXTT9=
EXTT10=
EXTT11=
EXTT12=
EXTT13=
EXTT14=
EXTT15=
PLAYORDER=
